<svg width="24" height="24" viewBox="0 0 24 24" fill="none" xmlns="http://www.w3.org/2000/svg">
<path fill-rule="evenodd" clip-rule="evenodd" d="M12 0.999756C12.2761 0.999756 12.5 1.22361 12.5 1.49976L12.5 22.5026C12.5 22.7788 12.2761 23.0026 12 23.0026C11.7239 23.0026 11.5 22.7788 11.5 22.5026L11.5 1.49976C11.5 1.22361 11.7239 0.999756 12 0.999756ZM3.5 13.6008C3.77614 13.6008 4 13.8247 4 14.1008L4 22.502C4 22.7781 3.77614 23.002 3.5 23.002C3.22386 23.002 3 22.7781 3 22.502V14.1008C3 13.8247 3.22386 13.6008 3.5 13.6008ZM21 9.06177C21 8.78562 20.7761 8.56177 20.5 8.56177C20.2239 8.56177 20 8.78562 20 9.06177V22.5036C20 22.7798 20.2239 23.0036 20.5 23.0036C20.7761 23.0036 21 22.7798 21 22.5036V9.06177Z" fill="#838383"/>
</svg>
