<svg width="24" height="24" viewBox="0 0 24 24" fill="none" xmlns="http://www.w3.org/2000/svg">
<path d="M6.86667 17.1333C3.21652 13.4832 1.5851 10.1299 1.13505 9.09299C1.04085 8.87593 1 8.64358 1 8.40697V5.71078C1 5.18035 1.21071 4.67164 1.58579 4.29657L3.46814 2.41421C4.24919 1.63316 5.51552 1.63317 6.29657 2.41421L8.89945 5.01709C9.57358 5.69122 9.67816 6.74746 9.14933 7.54071L8.1144 9.09311C7.71628 9.69028 7.66712 10.4562 8.02393 11.0789C8.52141 11.9472 9.29012 13.1725 10.0588 13.9412C10.8275 14.7099 12.0529 15.4786 12.9211 15.9761C13.5438 16.3329 14.3097 16.2837 14.9069 15.8856L16.4593 14.8507C17.2525 14.3218 18.3088 14.4264 18.9829 15.1006L21.5858 17.7034C22.3668 18.4845 22.3668 19.7508 21.5858 20.5319L19.7034 22.4142C19.3284 22.7893 18.8197 23 18.2892 23H15.593C15.3564 23 15.1241 22.9592 14.907 22.865C13.8701 22.4149 10.5168 20.7835 6.86667 17.1333Z" stroke="#838383" stroke-linecap="round" stroke-linejoin="round"/>
</svg>
