<svg width="32" height="33" viewBox="0 0 32 33" fill="none" xmlns="http://www.w3.org/2000/svg">
<path d="M10.2509 25.2336C10.1464 25.3548 10.0347 25.4208 9.91569 25.4317C9.79641 25.4385 9.67616 25.3896 9.55495 25.2851L7.9287 23.8831C7.80749 23.7786 7.74255 23.6678 7.73389 23.5508C7.72491 23.4296 7.77267 23.3083 7.87717 23.1871L8.59414 22.3555C8.74315 22.1827 8.89571 22.0579 9.05184 21.9812C9.20572 21.9025 9.35577 21.8715 9.50198 21.888C9.65013 21.9022 9.78593 21.9625 9.90939 22.069C10.0463 22.187 10.1303 22.3279 10.1613 22.4916C10.1943 22.6531 10.1717 22.8155 10.0934 22.9789L10.0362 22.9296C10.2072 22.7992 10.38 22.7349 10.5546 22.7367C10.7269 22.7366 10.8905 22.8033 11.0453 22.9368C11.2518 23.1148 11.351 23.3334 11.3429 23.5924C11.3348 23.8515 11.2185 24.1112 10.994 24.3716L10.2509 25.2336ZM9.9985 24.4642L10.3817 24.0198C10.4629 23.9255 10.5042 23.8437 10.5053 23.7742C10.5062 23.7006 10.4718 23.6338 10.4022 23.5738C10.3326 23.5138 10.2626 23.4907 10.1922 23.5043C10.1214 23.5137 10.0454 23.5656 9.96415 23.6599L9.58099 24.1043L9.9985 24.4642ZM9.05574 23.6515L9.38375 23.271C9.46503 23.1767 9.50849 23.0968 9.51414 23.0313C9.51755 22.9638 9.48558 22.901 9.41824 22.8429C9.35091 22.7849 9.28523 22.7635 9.22122 22.7787C9.1572 22.794 9.08456 22.8487 9.00328 22.943L8.67528 23.3235L9.05574 23.6515Z" fill="#ED7117"/>
<path d="M12.3367 22.8823C12.236 22.999 12.1272 23.0617 12.0102 23.0703C11.8909 23.0771 11.7729 23.0301 11.6562 22.9295L9.98279 21.4868C9.86382 21.3843 9.8 21.2745 9.79134 21.1575C9.78461 21.0382 9.83156 20.9202 9.93218 20.8035L10.655 19.9651C10.891 19.6912 11.1414 19.5393 11.4061 19.5091C11.6704 19.4749 11.9204 19.5593 12.1561 19.7625C12.311 19.896 12.4166 20.0458 12.473 20.2118C12.5272 20.3759 12.5306 20.5491 12.4831 20.7312C12.4354 20.9091 12.3321 21.0901 12.1735 21.2742L12.1298 21.1955L12.2953 21.0036C12.3804 20.9048 12.4795 20.8376 12.5924 20.8019C12.7031 20.7643 12.8257 20.7605 12.9603 20.7904L13.274 20.8554C13.3871 20.8786 13.4776 20.9234 13.5456 20.9898C13.6133 21.052 13.6474 21.1304 13.6481 21.2249C13.6485 21.3152 13.6032 21.4131 13.5123 21.5186C13.4252 21.6196 13.3334 21.6853 13.2369 21.7155C13.1381 21.7439 13.0225 21.744 12.8902 21.716L12.1119 21.5498C12.0628 21.5388 12.0169 21.5443 11.9745 21.5663C11.9297 21.5864 11.8919 21.6145 11.8609 21.6504L11.7651 21.7615L12.2803 22.2056C12.397 22.3062 12.4618 22.4149 12.4746 22.5316C12.4852 22.6464 12.4392 22.7633 12.3367 22.8823ZM11.2601 21.3261L11.559 20.9793C11.6442 20.8805 11.6899 20.7889 11.6963 20.7043C11.7046 20.6176 11.6683 20.5394 11.5875 20.4697C11.5089 20.402 11.4274 20.3786 11.3428 20.3996C11.2601 20.4183 11.1762 20.477 11.091 20.5758L10.7921 20.9226L11.2601 21.3261Z" fill="#ED7117"/>
<path d="M14.2035 20.7169C14.1338 20.7977 14.0557 20.8497 13.9692 20.8729C13.8846 20.8939 13.8029 20.8842 13.7243 20.8438C13.6454 20.7992 13.5808 20.722 13.5307 20.6122L12.5198 18.3262C12.4594 18.192 12.4347 18.0709 12.4456 17.9629C12.4585 17.8527 12.5036 17.7527 12.581 17.6629C12.6584 17.5731 12.7497 17.5149 12.8549 17.4882C12.9601 17.4615 13.0835 17.4681 13.2251 17.5081L15.6351 18.1712C15.7553 18.2043 15.8432 18.2567 15.8989 18.3282C15.9543 18.3955 15.9779 18.4726 15.9696 18.5593C15.961 18.6419 15.9229 18.7225 15.8551 18.8011C15.7661 18.9043 15.6738 18.9637 15.5783 18.9792C15.4828 18.9946 15.3629 18.9794 15.2187 18.9333L14.7023 18.7698L15.1366 18.6746L13.9551 20.045L13.9853 19.6014L14.2231 20.0882C14.2899 20.224 14.3256 20.3369 14.3302 20.427C14.3347 20.517 14.2925 20.6136 14.2035 20.7169ZM13.3563 18.3431L13.8852 19.3977L13.6062 19.3332L14.3812 18.4343L14.486 18.7007L13.3621 18.3364L13.3563 18.3431Z" fill="#ED7117"/>
<path d="M16.5995 17.9377C16.5047 18.0476 16.4029 18.1067 16.2942 18.1147C16.1875 18.1205 16.0791 18.076 15.9692 17.9812L14.2251 16.4776C14.1106 16.3789 14.0472 16.2753 14.035 16.167C14.0225 16.0544 14.0578 15.9499 14.141 15.8534C14.2107 15.7726 14.2827 15.7231 14.357 15.705C14.431 15.6827 14.529 15.6734 14.6512 15.6769L16.6054 15.7182L16.5183 15.8192L15.5115 14.9513C15.4016 14.8565 15.3416 14.7558 15.3316 14.6494C15.3235 14.5407 15.3669 14.4314 15.4618 14.3214C15.5566 14.2114 15.6574 14.1535 15.7641 14.1477C15.8728 14.1397 15.9821 14.1831 16.0921 14.2779L17.8699 15.8105C17.9664 15.8937 18.0217 15.9884 18.0359 16.0945C18.0497 16.1965 18.018 16.2923 17.9405 16.3821C17.8631 16.4719 17.7865 16.5291 17.7105 16.5536C17.6324 16.5762 17.5322 16.5857 17.4101 16.5821L15.4559 16.5409L15.543 16.4399L16.5497 17.3078C16.6597 17.4026 16.7187 17.5044 16.7267 17.613C16.7367 17.7195 16.6943 17.8277 16.5995 17.9377Z" fill="#ED7117"/>
<path d="M18.8116 15.3036C18.7071 15.4248 18.5954 15.4909 18.4764 15.5018C18.3572 15.5085 18.2369 15.4596 18.1157 15.3551L16.4895 13.9531C16.3682 13.8486 16.3033 13.7379 16.2946 13.6208C16.2857 13.4996 16.3334 13.3784 16.4379 13.2572L17.0098 12.5939C17.3736 12.1719 17.7595 11.9353 18.1676 11.8841C18.5734 11.8309 18.9637 11.9659 19.3386 12.2891C19.5272 12.4516 19.6694 12.6271 19.7653 12.8154C19.8609 12.9995 19.9109 13.1934 19.9155 13.3968C19.9198 13.5962 19.8782 13.801 19.7908 14.0113C19.7011 14.2196 19.5654 14.4293 19.3835 14.6403L18.8116 15.3036ZM18.5277 14.4484L18.7599 14.179C18.8508 14.0735 18.9169 13.972 18.958 13.8744C19.001 13.7745 19.0201 13.6775 19.0152 13.5833C19.0103 13.4891 18.9815 13.3977 18.9287 13.3092C18.8737 13.2187 18.7946 13.1289 18.6913 13.0399C18.4848 12.8619 18.2888 12.7829 18.1032 12.8029C17.9196 12.8207 17.7378 12.934 17.5579 13.1427L17.3257 13.4121L18.5277 14.4484Z" fill="#ED7117"/>
<circle cx="21.4441" cy="9.71802" r="0.744679" transform="rotate(40.163 21.4441 9.71802)" fill="#D9D9D9" stroke="#ED7117"/>
<path d="M26.0716 14.2793L12.5951 30.2475C12.417 30.4586 12.1015 30.4853 11.8905 30.3072L2.95571 22.7666C2.74468 22.5885 2.71799 22.273 2.89609 22.062L16.3726 6.09377C16.4758 5.97152 16.6312 5.90602 16.7908 5.91755L24.0002 6.43883C24.2164 6.45447 24.3979 6.60766 24.4497 6.81818L26.175 13.8375C26.2132 13.9928 26.1748 14.1571 26.0716 14.2793Z" stroke="#ED7117"/>
</svg>
