<svg width="24" height="24" viewBox="0 0 24 24" fill="none" xmlns="http://www.w3.org/2000/svg">
<path d="M9.79675 22.458C8.80608 22.458 8.02079 21.6409 8.02079 20.655C8.02079 19.6692 8.80608 18.852 9.79675 18.852C10.7874 18.852 11.5727 19.6692 11.5727 20.655L9.79675 22.458ZM9.79675 22.458C10.7874 22.458 11.5728 21.6409 11.5727 20.655L9.79675 22.458ZM11.5935 20.6549V20.655C11.5935 21.6841 10.7793 22.5004 9.79675 22.5004C8.81428 22.5004 8 21.6841 8 20.655C8 19.6259 8.81424 18.8096 9.79675 18.8096C10.7793 18.8096 11.5935 19.6259 11.5935 20.6549Z" stroke="#838383"/>
<path d="M19.4999 22.458C18.5092 22.458 17.7239 21.6409 17.7239 20.655C17.7239 19.6692 18.5092 18.852 19.4999 18.852C20.4905 18.852 21.2758 19.6692 21.2758 20.655L19.4999 22.458ZM19.4999 22.458C20.4905 22.458 21.2759 21.6409 21.2758 20.655L19.4999 22.458ZM17.7031 20.655C17.7031 19.6259 18.5174 18.8096 19.4999 18.8096C20.4824 18.8096 21.2966 19.6259 21.2966 20.655C21.2966 21.6841 20.4824 22.5004 19.4999 22.5004C18.5174 22.5004 17.7031 21.6841 17.7031 20.655Z" stroke="#838383"/>
<path d="M8.79424 12.3884L8.65434 13.2227C8.46522 14.3505 9.03598 15.4693 10.0601 15.9782V15.9782C10.1319 16.0139 10.211 16.0325 10.2912 16.0325H20.2526" stroke="#838383" stroke-linecap="round"/>
<path d="M2.375 1V1C3.75049 1 4.9787 1.8614 5.44716 3.15466L5.98667 4.64404M5.98667 4.64404L8.79167 12.3876L18.4265 12.0685C19.6742 12.0272 20.7659 11.2175 21.1676 10.0355L22.7754 5.30494C22.8856 4.98064 22.6445 4.64404 22.302 4.64404H5.98667Z" stroke="#838383" stroke-linecap="round"/>
<path d="M2.375 1L1 1" stroke="#838383" stroke-linecap="round"/>
</svg>
